<?xml version="1.0" encoding="UTF-8" standalone="no"?>
<!DOCTYPE svg PUBLIC "-//W3C//DTD SVG 1.1//EN" "http://www.w3.org/Graphics/SVG/1.1/DTD/svg11.dtd">
<svg width="100%" height="100%" viewBox="0 0 56 56" version="1.1" xmlns="http://www.w3.org/2000/svg" xmlns:xlink="http://www.w3.org/1999/xlink" xml:space="preserve" xmlns:serif="http://www.serif.com/" style="fill-rule:evenodd;clip-rule:evenodd;stroke-linejoin:round;stroke-miterlimit:2;">
    <g transform="matrix(0.931234,0,0,0.931234,-3.27844,-3.06405)">
        <path d="M5.582,33.5C5.582,20.34 5.582,13.76 9.67,9.672C13.759,5.583 20.339,5.583 33.499,5.583C46.659,5.583 53.239,5.583 57.327,9.672C61.415,13.76 61.415,20.34 61.415,33.5C61.415,46.66 61.415,53.24 57.327,57.328C53.239,61.417 46.659,61.417 33.499,61.417C20.339,61.417 13.759,61.417 9.67,57.328C5.582,53.24 5.582,46.66 5.582,33.5Z" style="fill:white;fill-opacity:0;fill-rule:nonzero;stroke:black;stroke-width:2.86px;"/>
    </g>
    <g transform="matrix(1,0,0,1,-5.72567,-5.51136)">
        <path d="M33.5,33.5L47.458,19.542M47.458,19.542L36.99,19.542M47.458,19.542L47.458,30.011" style="fill:none;fill-rule:nonzero;stroke:black;stroke-width:3px;stroke-linecap:round;stroke-miterlimit:4;"/>
    </g>
    <g transform="matrix(1,0,0,1,-5.72567,-5.51136)">
        <path d="M33.499,33.5L19.541,47.458M19.541,47.458L30.01,47.458M19.541,47.458L19.541,36.99" style="fill:none;fill-rule:nonzero;stroke:black;stroke-width:3px;stroke-linecap:round;stroke-miterlimit:4;"/>
    </g>
</svg>
