<?xml version="1.0" encoding="UTF-8" standalone="no"?>
<!DOCTYPE svg PUBLIC "-//W3C//DTD SVG 1.1//EN" "http://www.w3.org/Graphics/SVG/1.1/DTD/svg11.dtd">
<svg width="100%" height="100%" viewBox="0 0 652 652" version="1.1" xmlns="http://www.w3.org/2000/svg" xmlns:xlink="http://www.w3.org/1999/xlink" xml:space="preserve" xmlns:serif="http://www.serif.com/" style="fill-rule:evenodd;clip-rule:evenodd;stroke-linejoin:round;stroke-miterlimit:2;">
    <g transform="matrix(1,0,0,1,153,46)">
        <path d="M273,107.6L273,450.5L187.3,450.5L187.3,107.6L273,107.6ZM15.9,136.1C94.8,136.1 158.8,200.1 158.8,279C158.8,357.9 94.8,421.9 15.9,421.9C-63,421.9 -127,357.9 -127,279C-127,200.1 -63,136.1 15.9,136.1ZM362.2,193.3L387.3,218.4L412.4,193.3L473,193.3L473,253.9L447.9,279L473,304.1L473,364.7L412.4,364.7L387.3,339.6L362.2,364.7L301.6,364.7L301.6,304.1L326.7,279L301.6,253.9L301.6,193.3L362.2,193.3ZM15.9,221.9C-15.6,221.9 -41.2,247.5 -41.2,279C-41.2,310.5 -15.6,336.1 15.9,336.1C47.4,336.1 73,310.5 73,279C73,247.5 47.4,221.9 15.9,221.9Z" style="fill:rgb(255,0,0);fill-opacity:0;fill-rule:nonzero;"/>
        <g transform="matrix(1.08309,0,0,1.08309,-13.1327,-21.7011)">
            <clipPath id="_clip1">
                <path d="M273,107.6L273,450.5L187.3,450.5L187.3,107.6L273,107.6ZM15.9,136.1C94.8,136.1 158.8,200.1 158.8,279C158.8,357.9 94.8,421.9 15.9,421.9C-63,421.9 -127,357.9 -127,279C-127,200.1 -63,136.1 15.9,136.1ZM362.2,193.3L387.3,218.4L412.4,193.3L473,193.3L473,253.9L447.9,279L473,304.1L473,364.7L412.4,364.7L387.3,339.6L362.2,364.7L301.6,364.7L301.6,304.1L326.7,279L301.6,253.9L301.6,193.3L362.2,193.3ZM15.9,221.9C-15.6,221.9 -41.2,247.5 -41.2,279C-41.2,310.5 -15.6,336.1 15.9,336.1C47.4,336.1 73,310.5 73,279C73,247.5 47.4,221.9 15.9,221.9Z"/>
            </clipPath>
            <g clip-path="url(#_clip1)">
                <g transform="matrix(1,0,0,1,-153,-46)">
                    <path d="M168.9,182.1C247.8,182.1 311.8,246.1 311.8,325C311.8,403.9 247.8,467.9 168.9,467.9C90,467.9 26,403.9 26,325C26,246.1 90,182.1 168.9,182.1ZM168.9,267.9C137.4,267.9 111.8,293.5 111.8,325C111.8,356.5 137.4,382.1 168.9,382.1C200.4,382.1 226,356.5 226,325C226,293.5 200.4,267.9 168.9,267.9Z" style="fill:white;"/>
                </g>
                <g transform="matrix(1,0,0,1,-153,-46)">
                    <rect x="340.3" y="153.6" width="85.7" height="342.9" style="fill:white;"/>
                </g>
                <g transform="matrix(1,0,0,1,-153,-46)">
                    <path d="M515.2,239.3L540.3,264.4L565.4,239.3L626,239.3L626,299.9L600.9,325L626,350.1L626,410.7L565.4,410.7L540.3,385.6L515.2,410.7L454.6,410.7L454.6,350.1L479.7,325L454.6,299.9L454.6,239.3L515.2,239.3Z" style="fill:white;"/>
                </g>
            </g>
        </g>
        <path d="M273,107.6L273,450.5L187.3,450.5L187.3,107.6L273,107.6ZM15.9,136.1C94.8,136.1 158.8,200.1 158.8,279C158.8,357.9 94.8,421.9 15.9,421.9C-63,421.9 -127,357.9 -127,279C-127,200.1 -63,136.1 15.9,136.1ZM362.2,193.3L387.3,218.4L412.4,193.3L473,193.3L473,253.9L447.9,279L473,304.1L473,364.7L412.4,364.7L387.3,339.6L362.2,364.7L301.6,364.7L301.6,304.1L326.7,279L301.6,253.9L301.6,193.3L362.2,193.3ZM15.9,221.9C-15.6,221.9 -41.2,247.5 -41.2,279C-41.2,310.5 -15.6,336.1 15.9,336.1C47.4,336.1 73,310.5 73,279C73,247.5 47.4,221.9 15.9,221.9Z" style="fill:none;fill-rule:nonzero;"/>
    </g>
</svg>
