<?xml version="1.0" encoding="UTF-8" standalone="no"?>
<!DOCTYPE svg PUBLIC "-//W3C//DTD SVG 1.1//EN" "http://www.w3.org/Graphics/SVG/1.1/DTD/svg11.dtd">
<svg width="100%" height="100%" viewBox="0 0 2361 272" version="1.1" xmlns="http://www.w3.org/2000/svg" xmlns:xlink="http://www.w3.org/1999/xlink" xml:space="preserve" xmlns:serif="http://www.serif.com/" style="fill-rule:evenodd;clip-rule:evenodd;stroke-linejoin:round;stroke-miterlimit:2;">
    <g transform="matrix(1,0,0,1,-550.595,-989.079)">
        <g transform="matrix(1,0,0,1,379.357,594.62)">
            <path d="M324.838,666.459L324.838,545.259L206.038,545.259L206.038,666.459L171.238,666.459L171.238,394.459L206.038,394.459L206.038,512.459L324.838,512.459L324.838,394.459L359.638,394.459L359.638,666.459L324.838,666.459Z" style="fill-rule:nonzero;"/>
            <path d="M596.438,634.059L596.438,666.459L444.438,666.459L444.438,394.459L592.438,394.459L592.438,427.259L479.238,427.259L479.238,512.459L580.438,512.459L580.438,545.259L479.238,545.259L479.238,634.059L596.438,634.059Z" style="fill-rule:nonzero;"/>
            <path d="M656.838,666.459L656.838,394.459L736.838,394.459C762.971,394.459 782.238,400.792 794.638,413.459C807.038,426.125 813.238,443.125 813.238,464.459L813.238,473.259C813.238,484.992 810.571,495.392 805.238,504.459C799.904,513.525 792.171,520.725 782.038,526.059C796.171,530.592 806.904,537.992 814.238,548.259C821.571,558.525 825.238,570.859 825.238,585.259L825.238,594.059C825.238,615.925 818.904,633.459 806.238,646.659C793.571,659.859 773.771,666.459 746.838,666.459L656.838,666.459ZM736.838,426.459L691.638,426.459L691.638,512.459L736.838,512.459C750.171,512.459 760.238,509.059 767.038,502.259C773.838,495.459 777.238,486.059 777.238,474.059L777.238,464.459C777.238,452.725 773.838,443.459 767.038,436.659C760.238,429.859 750.171,426.459 736.838,426.459ZM746.838,544.459L691.638,544.459L691.638,634.859L746.838,634.859C760.971,634.859 771.571,631.259 778.638,624.059C785.704,616.859 789.238,606.859 789.238,594.059L789.238,584.459C789.238,572.192 785.704,562.459 778.638,555.259C771.571,548.059 760.971,544.459 746.838,544.459Z" style="fill-rule:nonzero;"/>
            <path d="M1042.84,634.059L1042.84,666.459L890.838,666.459L890.838,394.459L1038.84,394.459L1038.84,427.259L925.638,427.259L925.638,512.459L1026.84,512.459L1026.84,545.259L925.638,545.259L925.638,634.059L1042.84,634.059Z" style="fill-rule:nonzero;"/>
            <path d="M1252.04,634.059L1252.04,666.459L1103.24,666.459L1103.24,394.459L1138.04,394.459L1138.04,634.059L1252.04,634.059Z" style="fill-rule:nonzero;"/>
            <path d="M1433.64,394.459L1516.44,596.059L1599.64,394.459L1639.24,394.459L1639.24,666.459L1605.24,666.459L1605.24,550.059L1609.64,445.259L1531.64,634.459L1498.84,634.459L1422.44,444.459L1426.84,550.059L1426.84,666.459L1392.84,666.459L1392.84,394.459L1433.64,394.459Z" style="fill-rule:nonzero;"/>
            <path d="M1876.44,634.059L1876.44,666.459L1724.44,666.459L1724.44,394.459L1872.44,394.459L1872.44,427.259L1759.24,427.259L1759.24,512.459L1860.44,512.459L1860.44,545.259L1759.24,545.259L1759.24,634.059L1876.44,634.059Z" style="fill-rule:nonzero;"/>
            <path d="M1936.84,666.459L1936.84,394.459L2016.84,394.459C2042.97,394.459 2062.24,400.792 2074.64,413.459C2087.04,426.125 2093.24,443.125 2093.24,464.459L2093.24,473.259C2093.24,484.992 2090.57,495.392 2085.24,504.459C2079.9,513.525 2072.17,520.725 2062.04,526.059C2076.17,530.592 2086.9,537.992 2094.24,548.259C2101.57,558.525 2105.24,570.859 2105.24,585.259L2105.24,594.059C2105.24,615.925 2098.9,633.459 2086.24,646.659C2073.57,659.859 2053.77,666.459 2026.84,666.459L1936.84,666.459ZM2016.84,426.459L1971.64,426.459L1971.64,512.459L2016.84,512.459C2030.17,512.459 2040.24,509.059 2047.04,502.259C2053.84,495.459 2057.24,486.059 2057.24,474.059L2057.24,464.459C2057.24,452.725 2053.84,443.459 2047.04,436.659C2040.24,429.859 2030.17,426.459 2016.84,426.459ZM2026.84,544.459L1971.64,544.459L1971.64,634.859L2026.84,634.859C2040.97,634.859 2051.57,631.259 2058.64,624.059C2065.7,616.859 2069.24,606.859 2069.24,594.059L2069.24,584.459C2069.24,572.192 2065.7,562.459 2058.64,555.259C2051.57,548.059 2040.97,544.459 2026.84,544.459Z" style="fill-rule:nonzero;"/>
            <path d="M2322.84,634.059L2322.84,666.459L2170.84,666.459L2170.84,394.459L2318.84,394.459L2318.84,427.259L2205.64,427.259L2205.64,512.459L2306.84,512.459L2306.84,545.259L2205.64,545.259L2205.64,634.059L2322.84,634.059Z" style="fill-rule:nonzero;"/>
            <path d="M2532.04,634.059L2532.04,666.459L2383.24,666.459L2383.24,394.459L2418.04,394.459L2418.04,634.059L2532.04,634.059Z" style="fill-rule:nonzero;"/>
        </g>
    </g>
</svg>
